<svg version="1.1" id="Layer_1" xmlns="http://www.w3.org/2000/svg" xmlns:xlink="http://www.w3.org/1999/xlink" x="0px" y="0px"
	 width="100%" viewBox="0 0 410 410" enable-background="new 0 0 410 410" xml:space="preserve">
<path fill="#F3921A" opacity="1.000000" stroke="none"
	d="
M207.062622,375.709595
	C193.725220,386.541229 178.609085,393.730652 162.471329,399.638733
	C147.368362,405.167999 131.955963,406.125824 116.687309,404.492310
	C104.553360,403.194214 92.531372,398.923828 80.979683,394.587738
	C65.941566,388.943024 52.547264,380.122681 41.248505,368.579956
	C23.794802,350.749451 12.000603,329.638733 7.292776,305.085693
	C4.273901,289.341156 4.419221,273.500305 7.643877,257.527954
	C10.965551,241.075089 17.309570,226.162033 26.392225,212.265472
	C28.057417,209.717728 30.353424,207.582260 33.016563,205.153687
	C34.614674,205.696915 35.659290,206.232132 36.477825,207.006378
	C43.583710,213.727585 50.751274,220.388962 57.682209,227.287430
	C61.028130,230.617691 63.906269,234.417923 66.859497,238.328247
	C60.064663,248.743500 55.133640,259.619080 54.050076,271.720093
	C52.444824,289.647217 54.894779,306.973541 65.094856,322.306396
	C73.929276,335.586365 84.500885,347.056122 100.111488,352.750763
	C111.385780,356.863556 122.911201,358.211548 134.801422,357.097534
	C148.225739,355.839783 160.416061,351.382385 171.545868,343.157440
	C172.893936,342.589905 174.076126,342.276459 174.868134,341.542175
	C184.921280,332.221405 194.934967,322.857758 204.901871,313.444885
	C205.817612,312.580017 206.343445,311.302338 207.348663,310.045105
	C216.024536,302.063232 222.968567,292.607666 233.426315,286.559326
	C236.986435,305.896606 248.221512,316.348999 266.338348,317.940735
	C258.839569,326.878754 251.684525,335.407074 244.395828,344.094696
	C248.302673,346.480530 253.730728,349.795319 258.832947,353.373871
	C257.698944,353.776093 256.891418,354.031006 256.082428,354.035858
	C239.395065,354.136078 224.655502,359.634003 211.802078,370.170990
	C209.952072,371.687622 208.629364,373.847443 207.062622,375.709595
z"/>
<path fill="#404245" opacity="1.000000" stroke="none"
	d="
M207.411041,375.795013
	C208.629364,373.847443 209.952072,371.687622 211.802078,370.170990
	C224.655502,359.634003 239.395065,354.136078 256.082428,354.035858
	C256.891418,354.031006 257.698944,353.776093 259.219269,353.366028
	C270.636932,356.083893 281.305023,358.209961 292.667725,357.228485
	C313.674408,355.414062 330.196411,345.547211 342.653687,329.407806
	C355.274139,313.057068 360.804321,294.288361 358.215271,273.196198
	C356.619568,260.196625 352.201111,248.670807 344.957001,237.560165
	C340.142975,241.884888 335.610504,245.956650 330.707764,250.023865
	C323.754456,253.546448 318.425049,258.344055 314.978851,265.345276
	C314.731293,265.875183 314.463409,266.030090 313.734467,266.034119
	C308.907776,266.843170 305.789978,269.086243 304.657532,273.991760
	C299.613220,275.100677 294.803375,277.201080 290.226044,276.779175
	C271.151855,275.021057 263.373230,258.495422 270.570007,240.991043
	C274.330688,239.792633 278.175476,239.269653 280.977570,237.278946
	C286.985260,233.010864 292.571320,228.116440 298.093658,223.212387
	C300.742126,220.860474 302.853180,217.903397 305.207611,215.220398
	C304.857941,214.813828 304.508270,214.407257 304.158569,214.000687
	C301.411743,214.325562 298.664917,214.650452 296.051453,214.658966
	C299.783295,211.215302 303.381805,208.087997 307.206482,205.240601
	C308.375092,205.648468 309.317474,205.776398 310.587952,205.965317
	C313.000641,207.337677 315.085236,208.649048 317.313293,210.251251
	C326.957397,218.712082 336.458099,226.882095 346.272461,235.321869
	C353.712280,228.078186 361.428284,220.565582 369.445862,212.921310
	C372.201782,210.277130 374.656067,207.764618 377.443054,205.195648
	C378.445618,205.074249 379.115479,205.009293 379.785309,204.944336
	C393.747131,221.010529 401.542542,239.735229 405.116180,260.664246
	C409.476654,286.201202 405.461212,310.275177 395.109924,333.724365
	C389.709808,345.957520 382.008881,356.478546 373.182739,366.338501
	C358.329620,382.931396 339.297699,392.446014 318.685181,399.879059
	C304.499756,404.994415 290.019318,405.985931 275.507874,404.718414
	C256.862305,403.089844 239.549347,396.324677 223.443604,386.820129
	C217.969879,383.589874 212.973801,379.550232 207.411041,375.795013
M272.000336,256.508209
	C272.370331,260.619659 274.791779,263.226105 278.457794,264.557129
	C279.646545,264.988739 281.226166,264.343811 282.626953,264.191284
	C282.293152,262.842102 282.282745,261.278137 281.558838,260.188019
	C280.009613,257.854980 278.212158,255.651352 276.273651,253.627106
	C275.298035,252.608368 273.791992,252.097595 272.525787,251.357117
	C272.339661,252.818832 272.153534,254.280533 272.000336,256.508209
z"/>
<path fill="#F3921A" opacity="1.000000" stroke="none"
	d="
M379.938232,204.636200
	C379.115479,205.009293 378.445618,205.074249 377.391449,204.830017
	C371.597260,198.975616 366.139862,193.475739 360.790863,187.872437
	C355.463837,182.292130 350.245605,176.608017 345.005737,170.605652
	C356.712891,153.191635 360.859467,134.371765 356.983673,114.170258
	C351.958313,87.977165 337.722382,68.362251 312.579529,58.355724
	C288.626129,48.822578 265.477783,51.552910 243.593643,66.069771
	C241.478500,67.187599 239.527054,68.120064 237.992554,69.512146
	C228.294113,78.310547 218.688080,87.210808 209.031769,95.664978
	C210.340668,88.289383 212.146912,81.377129 212.895340,74.352173
	C214.311264,61.062279 211.098969,48.345226 206.886200,35.578140
	C206.920135,34.938999 206.959106,34.574669 206.998093,34.210342
	C222.908279,20.357597 241.270966,10.603563 261.772339,6.703650
	C280.284912,3.182068 299.541718,2.757562 317.792084,8.750546
	C336.152100,14.779535 353.249908,23.654526 367.591888,37.105404
	C388.095215,56.334835 400.342560,79.832008 405.024872,107.526276
	C409.891296,136.309509 404.935608,163.377121 391.343292,188.917282
	C388.384979,194.475922 383.882446,199.212738 379.938232,204.636200
z"/>
<path fill="#404145" opacity="1.000000" stroke="none"
	d="
M206.685913,34.058174
	C206.959106,34.574669 206.920135,34.938999 206.607925,35.763756
	C198.014908,43.108112 189.741577,50.049305 181.354919,56.850765
	C177.412399,60.048096 173.251846,62.976578 169.041077,65.703171
	C148.159531,51.395599 125.801773,49.299232 102.455200,56.991848
	C79.155350,64.669067 65.425789,82.002327 56.402443,104.032394
	C55.282482,103.714752 54.461220,103.527618 53.752972,103.136055
	C37.862244,94.350639 31.751678,79.579117 28.954460,62.732010
	C28.683357,61.099213 27.709145,59.583160 27.061314,58.012913
	C41.321026,35.633381 62.554417,22.647858 86.234245,12.020081
	C105.382462,3.426149 125.122704,4.558984 144.809357,5.336824
	C160.444290,5.954576 174.531525,13.325481 188.038773,20.870155
	C194.547012,24.505432 200.286270,29.517418 206.685913,34.058174
z"/>
<path fill="#F27628" opacity="1.000000" stroke="none"
	d="
M66.996216,238.005356
	C63.906269,234.417923 61.028130,230.617691 57.682209,227.287430
	C50.751274,220.388962 43.583710,213.727585 36.477825,207.006378
	C35.659290,206.232132 34.614674,205.696915 33.329384,205.012650
	C32.983887,204.974411 33.017284,204.498489 33.283123,204.117065
	C40.694954,196.823593 47.840946,189.911545 55.287441,182.980164
	C56.057690,182.637436 56.527439,182.314056 56.998821,181.995331
	C57.000458,182.000000 56.991947,181.996460 57.214081,181.890320
	C57.713512,181.584198 57.900257,181.320145 57.998306,180.996033
	C58.000153,181.000000 57.991997,180.996445 58.214157,180.890411
	C58.713692,180.584457 58.900356,180.320419 58.998230,179.996124
	C59.000153,180.000000 58.992161,179.996292 59.214321,179.890381
	C59.713894,179.584656 59.900471,179.320663 59.998184,178.996246
	C60.000153,179.000000 59.992416,178.996216 60.216911,178.887482
	C60.721558,178.573151 60.906269,178.302429 61.133324,177.681824
	C62.503105,176.262390 63.735104,175.127701 65.371368,173.996338
	C66.850647,174.001266 67.925652,174.002853 69.307251,174.162598
	C70.675499,175.945114 71.447128,177.897079 72.848488,179.137741
	C79.270111,184.823029 85.692001,190.536560 92.468315,195.781952
	C96.558990,198.948441 101.298462,201.276810 105.897514,204.293610
	C117.279419,215.183823 128.236298,226.074905 139.834045,236.234390
	C148.035019,243.418396 147.603287,259.338318 143.158997,266.001190
	C134.413025,279.113190 117.393242,282.133057 106.018234,273.342896
	C98.840424,267.796173 92.435944,261.246368 85.706429,255.122513
	C79.454636,249.433350 73.231796,243.712357 66.996216,238.005356
z"/>
<path fill="#EE6623" opacity="1.000000" stroke="none"
	d="
M54.986938,182.999496
	C47.840946,189.911545 40.694954,196.823593 33.245338,203.881531
	C29.312656,199.719696 24.926777,195.841080 22.195841,191.024185
	C13.863938,176.328125 7.836915,160.853287 5.876329,143.732910
	C2.906162,117.796608 7.230684,93.425331 19.034117,70.299866
	C21.164967,66.125069 23.938721,62.278419 26.738487,58.146591
	C27.709145,59.583160 28.683357,61.099213 28.954460,62.732010
	C31.751678,79.579117 37.862244,94.350639 53.752972,103.136055
	C54.461220,103.527618 55.282482,103.714752 56.317211,104.397552
	C56.306271,106.061523 56.104389,107.347153 55.740444,108.585144
	C52.439880,119.812294 52.463886,131.012161 54.807640,142.498840
	C56.939396,152.946503 61.919151,161.938766 66.811813,171.128418
	C66.021072,172.193954 65.494087,173.093491 64.967102,173.993011
	C63.735104,175.127701 62.503105,176.262390 60.913418,177.796997
	C60.278919,178.400589 60.091148,178.667023 59.992416,178.996216
	C59.992416,178.996216 60.000153,179.000000 59.776501,179.102753
	C59.276127,179.405396 59.089230,179.668991 58.992161,179.996292
	C58.992161,179.996292 59.000153,180.000000 58.776478,180.102661
	C58.275959,180.405304 58.089024,180.669006 57.991997,180.996445
	C57.991997,180.996445 58.000153,181.000000 57.776489,181.102600
	C57.275883,181.405151 57.088921,181.668915 56.991947,181.996460
	C56.991947,181.996460 57.000458,182.000000 56.699936,182.016296
	C55.928593,182.354889 55.457767,182.677185 54.986938,182.999496
z"/>
<path fill="#424346" opacity="1.000000" stroke="none"
	d="
M171.545868,343.157440
	C164.037888,336.573944 157.114487,329.648224 149.633209,323.389313
	C144.608521,319.185608 141.375137,314.721588 140.885010,307.909485
	C139.852036,293.552399 146.126389,285.379974 158.221176,282.112183
	C168.737900,279.270752 177.843506,282.198303 185.577637,289.995483
	C192.344254,296.817291 199.455994,303.296753 206.732803,310.071899
	C206.343445,311.302338 205.817612,312.580017 204.901871,313.444885
	C194.934967,322.857758 184.921280,332.221405 174.868134,341.542175
	C174.076126,342.276459 172.893936,342.589905 171.545868,343.157440
z"/>
<path fill="#F27628" opacity="1.000000" stroke="none"
	d="
M307.125610,204.209732
	C296.210632,194.084305 285.653229,183.533112 274.266571,173.969238
	C265.289612,166.429337 265.110443,148.154572 274.179535,139.807480
	C284.728119,130.098679 299.645233,128.952576 310.252045,138.804138
	C321.673004,149.411865 332.970734,160.152313 344.650940,170.902145
	C350.245605,176.608017 355.463837,182.292130 360.790863,187.872437
	C366.139862,193.475739 371.597260,198.975616 377.058716,204.886475
	C374.656067,207.764618 372.201782,210.277130 368.988525,212.905273
	C364.293610,213.346375 360.359039,213.690582 356.421326,213.993896
	C343.095062,215.020386 330.159821,212.219543 317.169861,209.960419
	C315.085236,208.649048 313.000641,207.337677 310.409393,205.706390
	C308.977051,204.994232 308.051331,204.601990 307.125610,204.209732
z"/>
<path fill="#EF8E1C" opacity="1.000000" stroke="none"
	d="
M317.313293,210.251251
	C330.159821,212.219543 343.095062,215.020386 356.421326,213.993896
	C360.359039,213.690582 364.293610,213.346375 368.686951,213.036942
	C361.428284,220.565582 353.712280,228.078186 346.272461,235.321869
	C336.458099,226.882095 326.957397,218.712082 317.313293,210.251251
z"/>
<path fill="#404245" opacity="1.000000" stroke="none"
	d="
M270.570007,240.991043
	C271.330261,239.299179 272.232117,237.345123 273.669342,235.937729
	C280.801270,228.953796 288.074371,222.114014 295.607910,215.099396
	C298.664917,214.650452 301.411743,214.325562 304.158569,214.000687
	C304.508270,214.407257 304.857941,214.813828 305.207611,215.220398
	C302.853180,217.903397 300.742126,220.860474 298.093658,223.212387
	C292.571320,228.116440 286.985260,233.010864 280.977570,237.278946
	C278.175476,239.269653 274.330688,239.792633 270.570007,240.991043
z"/>
<path fill="#404245" opacity="1.000000" stroke="none"
	d="
M271.983887,256.125244
	C272.153534,254.280533 272.339661,252.818832 272.525787,251.357117
	C273.791992,252.097595 275.298035,252.608368 276.273651,253.627106
	C278.212158,255.651352 280.009613,257.854980 281.558838,260.188019
	C282.282745,261.278137 282.293152,262.842102 282.626953,264.191284
	C281.226166,264.343811 279.646545,264.988739 278.457794,264.557129
	C274.791779,263.226105 272.370331,260.619659 271.983887,256.125244
z"/>
<path fill="#404245" opacity="1.000000" stroke="none"
	d="
M330.707764,250.023865
	C325.963287,255.017288 320.848541,260.006165 315.387512,265.054199
	C318.425049,258.344055 323.754456,253.546448 330.707764,250.023865
z"/>
<path fill="#404245" opacity="1.000000" stroke="none"
	d="
M313.734467,266.034119
	C311.301147,268.622131 308.489532,271.202393 305.338440,273.802917
	C305.789978,269.086243 308.907776,266.843170 313.734467,266.034119
z"/>
<path fill="#404245" opacity="1.000000" stroke="none"
	d="
M307.089539,204.397522
	C308.051331,204.601990 308.977051,204.994232 310.081329,205.645401
	C309.317474,205.776398 308.375092,205.648468 307.206482,205.240601
	C306.980316,204.960678 307.053497,204.585312 307.089539,204.397522
z"/>
<path fill="#EF6623" opacity="1.000000" stroke="none"
	d="
M207.463470,99.858047
	C201.109833,105.928940 194.902069,112.163071 188.353149,118.015442
	C183.701324,122.172501 179.016388,126.603134 173.601196,129.536041
	C158.496185,137.716980 137.301193,125.660233 137.873932,107.366035
	C138.129227,99.211060 140.220840,92.634926 146.345901,87.215591
	C153.962372,80.476700 161.378799,73.511688 169.035858,66.335609
	C173.251846,62.976578 177.412399,60.048096 181.354919,56.850765
	C189.741577,50.049305 198.014908,43.108112 206.612946,36.038574
	C211.098969,48.345226 214.311264,61.062279 212.895340,74.352173
	C212.146912,81.377129 210.340668,88.289383 209.013306,95.642120
	C209.014633,96.031715 209.066788,96.008766 208.821655,96.127335
	C208.393799,96.553421 208.211090,96.860954 207.996307,97.510757
	C207.797318,98.521378 207.630386,99.189705 207.463470,99.858047
z"/>
<path fill="#605E58" opacity="1.000000" stroke="none"
	d="
M207.716980,100.126297
	C207.630386,99.189705 207.797318,98.521378 208.237488,97.384171
	C208.696091,96.613121 208.881439,96.310944 209.066788,96.008766
	C209.066788,96.008766 209.014633,96.031715 209.033081,96.054581
	C218.688080,87.210808 228.294113,78.310547 237.992554,69.512146
	C239.527054,68.120064 241.478500,67.187599 243.593643,66.069763
	C253.634888,75.098091 263.786865,83.656799 272.859741,93.237427
	C280.412476,101.212868 279.356842,111.369362 274.611603,120.172516
	C270.592285,127.628975 263.399872,132.075165 254.434418,133.046860
	C245.570114,134.007568 238.900864,129.959335 232.890579,124.311920
	C224.500427,116.428299 216.269547,108.375160 207.716980,100.126297
z"/>
<path fill="#F3921A" opacity="1.000000" stroke="none"
	d="
M67.956116,170.918381
	C79.826653,159.615540 91.440262,148.025253 103.654922,137.107437
	C112.301788,129.378616 127.054527,130.349060 136.539062,138.127853
	C145.301025,145.314011 147.259659,158.693100 141.944687,168.982315
	C141.502167,169.838989 140.835098,170.625748 140.128983,171.293335
	C128.799591,182.004440 117.446899,192.690887 105.922951,203.682343
	C101.298462,201.276810 96.558990,198.948441 92.468315,195.781952
	C85.692001,190.536560 79.270111,184.823029 72.848488,179.137741
	C71.447128,177.897079 70.675499,175.945114 69.178314,173.859100
	C68.480568,172.571106 68.218346,171.744736 67.956116,170.918381
z"/>
<path fill="#EE7C31" opacity="1.000000" stroke="none"
	d="
M67.737289,170.955643
	C68.218346,171.744736 68.480568,172.571106 68.871727,173.700958
	C67.925652,174.002853 66.850647,174.001266 65.371368,173.996338
	C65.494087,173.093491 66.021072,172.193954 66.811813,171.128418
	C67.075562,170.962402 67.518463,170.992905 67.737289,170.955643
z"/>
<path fill="#EE7C31" opacity="1.000000" stroke="none"
	d="
M55.287445,182.980164
	C55.457767,182.677185 55.928593,182.354889 56.698303,182.011627
	C56.527439,182.314056 56.057690,182.637436 55.287445,182.980164
z"/>
<path fill="#EE7C31" opacity="1.000000" stroke="none"
	d="
M60.216911,178.887482
	C60.091148,178.667023 60.278919,178.400589 60.775642,178.081757
	C60.906269,178.302429 60.721558,178.573151 60.216911,178.887482
z"/>
<path fill="#EE7C31" opacity="1.000000" stroke="none"
	d="
M59.214321,179.890381
	C59.089230,179.668991 59.276127,179.405396 59.774532,179.098984
	C59.900471,179.320663 59.713894,179.584656 59.214321,179.890381
z"/>
<path fill="#EE7C31" opacity="1.000000" stroke="none"
	d="
M58.214157,180.890411
	C58.089024,180.669006 58.275959,180.405304 58.774559,180.098785
	C58.900356,180.320419 58.713692,180.584457 58.214157,180.890411
z"/>
<path fill="#EE7C31" opacity="1.000000" stroke="none"
	d="
M57.214081,181.890320
	C57.088921,181.668915 57.275883,181.405151 57.774643,181.098618
	C57.900257,181.320145 57.713512,181.584198 57.214081,181.890320
z"/>
<path fill="#F39118" opacity="1.000000" stroke="none"
	d="
M168.000061,208.874939
	C167.193344,188.470551 180.636749,171.796158 199.386902,167.444000
	C221.510849,162.308731 245.095840,174.073257 249.661270,199.049500
	C255.383392,230.353760 229.322937,252.603226 201.011215,247.233368
	C181.346909,243.503677 168.475311,226.132141 168.000061,208.874939
z"/>
<path fill="#F3921A" opacity="1.000000" stroke="none"
	d="
M208.821655,96.127335
	C208.881439,96.310944 208.696091,96.613121 208.269562,97.041885
	C208.211090,96.860954 208.393799,96.553421 208.821655,96.127335
z"/>
</svg>
